# xmcd
#
# Track frame offsets:
#	150
#	17642
#	32908
#	49705
#	68433
#	86471
#	102961
#	116184
#	136568
#	151546
#	168334
#
# Disc length: 2415 seconds
#
# Revision: 1
# Processed by: cddbd v1.5.2PL0 Copyright (c) Steve Scherf et al.
# Submitted via: audiograbber 1.83.01
#
DISCID=79096d0b
DTITLE=Dierks Bentley - Long Trip Alone
DYEAR=2006
DGENRE=
TTITLE0=every mile a memory
TTITLE1=can`t live it down
TTITLE2=long trip alone
TTITLE3=that don`t make it easy loving me
TTITLE4=soon as you can
TTITLE5=trying to stop your leaving
TTITLE6=hope for me yet
TTITLE7=the heaven i`m headed to
TTITLE8=free and easy (down the road i go)
TTITLE9=band of brothers
TTITLE10=prodigal son´s prayer (featuring the grascals)
EXTD=
EXTT0=
EXTT1=
EXTT2=
EXTT3=
EXTT4=
EXTT5=
EXTT6=
EXTT7=
EXTT8=
EXTT9=
EXTT10=
PLAYORDER=
